<?xml version="1.0" encoding="UTF-8" standalone="no"?>
<svg width="482px" height="188px" viewBox="0 0 482 188" version="1.1" xmlns="http://www.w3.org/2000/svg" xmlns:xlink="http://www.w3.org/1999/xlink">
    <!-- Generator: Sketch 39.1 (31720) - http://www.bohemiancoding.com/sketch -->
    <title>Logotype</title>
    <desc>Created with Sketch.</desc>
    <defs></defs>
    <g id="Page-1" stroke="none" stroke-width="1" fill="none" fill-rule="evenodd">
        <g id="Desktop-HD" transform="translate(-478.000000, -356.000000)">
            <g id="Logotype" transform="translate(478.000000, 356.000000)">
                <path d="M62.608,66 L62.608,1.508 L43.472,1.508 L43.472,27.176 L20.564,27.176 L20.564,1.508 L1.428,1.508 L1.428,66 L20.564,66 L20.564,41.988 L43.472,41.988 L43.472,66 L62.608,66 Z M116.888,55.696 L120.66,66 L141.084,66 L114.496,1.508 L94.808,1.508 L67.3,66 L86.988,66 L90.852,55.696 L116.888,55.696 Z M111.828,41.712 L96.188,41.712 L104.1,20.644 L111.828,41.712 Z M174.94,0.956 C154.976,0.956 140.256,14.848 140.256,33.616 C140.256,52.66 154.7,66.828 174.296,66.828 C184.048,66.828 194.628,61.952 201.62,54.408 L190.58,42.632 C186.164,47.14 180.184,50.084 175.216,50.084 C166.476,50.084 159.852,42.908 159.852,33.432 C159.852,23.956 166.476,16.872 175.216,16.872 C180.552,16.872 186.532,20.276 190.58,25.428 L201.62,12.364 C195.088,5.372 184.692,0.956 174.94,0.956 L174.94,0.956 Z M248.816,66 L271.724,66 L246.884,27.728 L270.252,1.508 L248.172,1.508 L226.552,26.348 L226.552,1.508 L207.416,1.508 L207.416,66 L226.552,66 L226.552,50.544 L233.82,42.448 L248.816,66 Z M349.372,16.78 L349.372,1.508 L292.7,1.508 L292.7,16.78 L311.376,16.78 L311.376,66 L330.604,66 L330.604,16.78 L349.372,16.78 Z M416.532,66 L416.532,1.508 L397.396,1.508 L397.396,27.176 L374.488,27.176 L374.488,1.508 L355.352,1.508 L355.352,66 L374.488,66 L374.488,41.988 L397.396,41.988 L397.396,66 L416.532,66 Z M480.104,16.228 L480.104,1.508 L427.388,1.508 L427.388,66 L481.024,66 L481.024,51.28 L446.524,51.28 L446.524,41.068 L476.976,41.068 L476.976,26.348 L446.524,26.348 L446.524,16.228 L480.104,16.228 Z" id="HACK-THE" fill="#363636"></path>
                <path d="M95.166,104.145 L95.166,78.747 L0.918,78.747 L0.918,104.145 L31.977,104.145 L31.977,186 L63.954,186 L63.954,104.145 L95.166,104.145 Z M167.994,186 L204.102,186 L182.376,150.963 C194.004,144.384 200.43,132.756 200.43,116.844 C200.43,92.517 183.906,78.747 155.142,78.747 L105.111,78.747 L105.111,186 L136.935,186 L136.935,157.083 L153.765,157.083 L167.994,186 Z M136.935,132.603 L136.935,103.227 L155.142,103.227 C164.628,103.227 170.136,108.429 170.136,117.762 C170.136,127.401 164.628,132.603 155.142,132.603 L136.935,132.603 Z M247.86,186 L247.86,78.747 L216.036,78.747 L216.036,186 L247.86,186 Z M317.475,77.829 C284.274,77.829 259.794,100.932 259.794,132.144 C259.794,163.815 283.815,187.377 316.404,187.377 C332.622,187.377 350.217,179.268 361.845,166.722 L343.485,147.138 C336.141,154.635 326.196,159.531 317.934,159.531 C303.399,159.531 292.383,147.597 292.383,131.838 C292.383,116.079 303.399,104.298 317.934,104.298 C326.808,104.298 336.753,109.959 343.485,118.527 L361.845,96.801 C350.982,85.173 333.693,77.829 317.475,77.829 L317.475,77.829 Z M422.127,77.829 C388.467,77.829 363.681,100.779 363.681,132.297 C363.681,163.968 388.467,187.377 422.127,187.377 C455.787,187.377 480.573,163.815 480.573,132.297 C480.573,100.932 455.787,77.829 422.127,77.829 L422.127,77.829 Z M422.586,104.451 C436.662,104.451 447.984,116.232 447.984,132.45 C447.984,148.668 436.662,160.755 422.586,160.755 C408.51,160.755 396.27,148.668 396.27,132.45 C396.27,116.232 408.357,104.451 422.586,104.451 L422.586,104.451 Z" id="TRICO" fill="#FF5E5B"></path>
            </g>
        </g>
    </g>
</svg>